<svg xmlns="http://www.w3.org/2000/svg" version="1.1" xmlns:xlink="http://www.w3.org/1999/xlink" xmlns:svgjs="http://svgjs.dev/svgjs" width="1500" height="549" viewBox="0 0 1500 549"><g transform="matrix(1,0,0,1,-0.9090909090909918,-0.22125422046946142)"><svg viewBox="0 0 396 145" data-background-color="#ffffff" preserveAspectRatio="xMidYMid meet" height="549" width="1500" xmlns="http://www.w3.org/2000/svg" xmlns:xlink="http://www.w3.org/1999/xlink"><g id="tight-bounds" transform="matrix(1,0,0,1,0.2400000000000091,0.0584369070456745)"><svg viewBox="0 0 395.52 144.88312618590865" height="144.88312618590865" width="395.52"><g><svg viewBox="0 0 395.52 144.88312618590865" height="144.88312618590865" width="395.52"><g><svg viewBox="0 0 667.2865795116521 244.43407590399997" height="144.88312618590865" width="395.52"><g transform="matrix(1,0,0,1,271.76657951165214,12.704874836490092)"><svg viewBox="0 0 395.52 219.02432623101978" height="219.02432623101978" width="395.52"><g id="textblocktransform"><svg viewBox="0 0 395.52 219.02432623101978" height="219.02432623101978" width="395.52" id="textblock"><g><svg viewBox="0 0 395.52 115.78991304347826" height="115.78991304347826" width="395.52"><g transform="matrix(1,0,0,1,0,0)"><svg width="395.52" viewBox="1.75 -39.65 172.48 50.5" height="115.78991304347826" data-palette-color="#252a34"><path d="M14.45-35.25Q20.55-35.25 23.85-30.8 27.15-26.35 27.15-17.3L27.15-17.3Q27.15-8.35 23.85-3.8 20.55 0.75 14.45 0.75L14.45 0.75Q8.4 0.75 5.08-3.75 1.75-8.25 1.75-17.25L1.75-17.25Q1.75-26.15 5.08-30.7 8.4-35.25 14.45-35.25L14.45-35.25ZM14.45-30.45Q11.4-30.45 9.93-27.4 8.45-24.35 8.45-17.25L8.45-17.25Q8.45-10.1 9.95-7.13 11.45-4.15 14.45-4.15L14.45-4.15Q17.55-4.15 19.03-7.1 20.5-10.05 20.5-17.3L20.5-17.3Q20.5-24.4 19-27.43 17.5-30.45 14.45-30.45L14.45-30.45ZM42.9-5L45.05-1.2Q42.6 0.75 39.3 0.75L39.3 0.75Q35.85 0.75 34.05-1.23 32.25-3.2 32.25-6.6L32.25-6.6 32.25-22 29.15-22 29.15-26.45 32.25-26.45 32.25-32.3 38.4-33.05 38.4-26.45 43.4-26.45 42.8-22 38.4-22 38.4-6.6Q38.4-4.2 40.45-4.2L40.45-4.2Q41.1-4.2 41.6-4.38 42.1-4.55 42.9-5L42.9-5ZM47.6-26.45L53.75-26.45 53.75 0 47.6 0 47.6-26.45ZM50.65-39.65Q52.3-39.65 53.32-38.6 54.35-37.55 54.35-35.9L54.35-35.9Q54.35-34.3 53.32-33.25 52.3-32.2 50.65-32.2L50.65-32.2Q49-32.2 47.97-33.25 46.95-34.3 46.95-35.9L46.95-35.9Q46.95-37.55 47.97-38.6 49-39.65 50.65-39.65L50.65-39.65ZM71.64-27.15Q75.54-27.15 77.54-23.58 79.54-20 79.54-13.3L79.54-13.3Q79.54-6.8 77.27-3.03 74.99 0.75 70.94 0.75L70.94 0.75Q67.74 0.75 65.59-2.1L65.59-2.1 65.59 10.15 59.44 10.85 59.44-26.45 64.89-26.45 65.14-23.25Q66.44-25.25 68.04-26.2 69.64-27.15 71.64-27.15L71.64-27.15ZM69.29-3.95Q71.19-3.95 72.19-6.13 73.19-8.3 73.19-13.25L73.19-13.25Q73.19-18.45 72.34-20.5 71.49-22.55 69.69-22.55L69.69-22.55Q67.39-22.55 65.59-19.25L65.59-19.25 65.59-6.45Q67.19-3.95 69.29-3.95L69.29-3.95ZM84.14-26.45L90.29-26.45 90.29 0 84.14 0 84.14-26.45ZM87.19-39.65Q88.84-39.65 89.87-38.6 90.89-37.55 90.89-35.9L90.89-35.9Q90.89-34.3 89.87-33.25 88.84-32.2 87.19-32.2L87.19-32.2Q85.54-32.2 84.52-33.25 83.49-34.3 83.49-35.9L83.49-35.9Q83.49-37.55 84.52-38.6 85.54-39.65 87.19-39.65L87.19-39.65ZM98.49-7.05Q100.19-7.05 101.24-5.9 102.29-4.75 102.29-3.15L102.29-3.15Q102.29-1.55 101.24-0.4 100.19 0.75 98.49 0.75L98.49 0.75Q96.84 0.75 95.76-0.4 94.69-1.55 94.69-3.15L94.69-3.15Q94.69-4.75 95.76-5.9 96.84-7.05 98.49-7.05L98.49-7.05ZM123.64-6.4Q123.64-5.1 123.99-4.48 124.34-3.85 125.14-3.45L125.14-3.45 123.89 0.65Q121.84 0.4 120.61-0.45 119.39-1.3 118.79-3.05L118.79-3.05Q116.49 0.75 112.34 0.75L112.34 0.75Q109.04 0.75 107.09-1.48 105.14-3.7 105.14-7.4L105.14-7.4Q105.14-11.7 107.81-13.95 110.49-16.2 115.59-16.2L115.59-16.2 117.64-16.2 117.64-18.05Q117.64-20.55 116.76-21.58 115.89-22.6 113.94-22.6L113.94-22.6Q111.59-22.6 108.09-21.3L108.09-21.3 106.69-25.3Q108.69-26.2 110.84-26.68 112.99-27.15 114.94-27.15L114.94-27.15Q123.64-27.15 123.64-18.35L123.64-18.35 123.64-6.4ZM113.99-3.7Q116.39-3.7 117.64-7L117.64-7 117.64-12.55 116.19-12.55Q113.64-12.55 112.46-11.4 111.29-10.25 111.29-7.85L111.29-7.85Q111.29-5.8 111.99-4.75 112.69-3.7 113.99-3.7L113.99-3.7ZM141.63-27.15Q145.53-27.15 147.53-23.58 149.53-20 149.53-13.3L149.53-13.3Q149.53-6.8 147.26-3.03 144.98 0.75 140.93 0.75L140.93 0.75Q137.73 0.75 135.58-2.1L135.58-2.1 135.58 10.15 129.43 10.85 129.43-26.45 134.88-26.45 135.13-23.25Q136.43-25.25 138.03-26.2 139.63-27.15 141.63-27.15L141.63-27.15ZM139.28-3.95Q141.18-3.95 142.18-6.13 143.18-8.3 143.18-13.25L143.18-13.25Q143.18-18.45 142.33-20.5 141.48-22.55 139.68-22.55L139.68-22.55Q137.38-22.55 135.58-19.25L135.58-19.25 135.58-6.45Q137.18-3.95 139.28-3.95L139.28-3.95ZM166.33-27.15Q170.23-27.15 172.23-23.58 174.23-20 174.23-13.3L174.23-13.3Q174.23-6.8 171.96-3.03 169.68 0.75 165.63 0.75L165.63 0.75Q162.43 0.75 160.28-2.1L160.28-2.1 160.28 10.15 154.13 10.85 154.13-26.45 159.58-26.45 159.83-23.25Q161.13-25.25 162.73-26.2 164.33-27.15 166.33-27.15L166.33-27.15ZM163.98-3.95Q165.88-3.95 166.88-6.13 167.88-8.3 167.88-13.25L167.88-13.25Q167.88-18.45 167.03-20.5 166.18-22.55 164.38-22.55L164.38-22.55Q162.08-22.55 160.28-19.25L160.28-19.25 160.28-6.45Q161.88-3.95 163.98-3.95L163.98-3.95Z" opacity="1" transform="matrix(1,0,0,1,0,0)" fill="#252a34" class="wordmark-text-0" data-fill-palette-color="primary" id="text-0"></path></svg></g></svg></g><g transform="matrix(1,0,0,1,0,143.12513255513045)"><svg viewBox="0 0 395.52 75.89919367588934" height="75.89919367588934" width="395.52"><g transform="matrix(1,0,0,1,0,0)"><svg width="395.52" viewBox="0 -37.7 252.97 48.550000000000004" height="75.89919367588934" data-palette-color="#ff2e63"><path d="M9.3-34.25Q12.25-34.25 14.4-33.05 16.55-31.85 17.65-29.78 18.75-27.7 18.75-25.1L18.75-25.1Q18.75-22.2 17.75-19.6 16.75-17 14.4-13.68 12.05-10.35 7.45-4.9L7.45-4.9 19.35-4.9 18.7 0 0.9 0 0.9-4.55Q5.85-10.75 8.22-14.13 10.6-17.5 11.53-19.85 12.45-22.2 12.45-24.75L12.45-24.75Q12.45-27.05 11.45-28.23 10.45-29.4 8.7-29.4L8.7-29.4Q7.25-29.4 6.13-28.63 5-27.85 3.65-26.05L3.65-26.05 0-28.8Q3.55-34.25 9.3-34.25L9.3-34.25ZM33.2-33.05Q31.8-33.05 31.12-32.3 30.45-31.55 30.45-30L30.45-30 30.45-26.45 35.5-26.45 34.8-22 30.45-22 30.45 0 24.3 0 24.3-22 21-22 21-26.45 24.3-26.45 24.3-29.8Q24.3-33.4 26.4-35.55 28.5-37.7 32.4-37.7L32.4-37.7Q35.45-37.7 38.3-36.2L38.3-36.2 36.6-32.2Q34.85-33.05 33.2-33.05L33.2-33.05ZM55.2-6.4Q55.2-5.1 55.55-4.48 55.9-3.85 56.7-3.45L56.7-3.45 55.45 0.65Q53.4 0.4 52.17-0.45 50.95-1.3 50.35-3.05L50.35-3.05Q48.05 0.75 43.9 0.75L43.9 0.75Q40.6 0.75 38.65-1.48 36.7-3.7 36.7-7.4L36.7-7.4Q36.7-11.7 39.37-13.95 42.05-16.2 47.15-16.2L47.15-16.2 49.2-16.2 49.2-18.05Q49.2-20.55 48.32-21.58 47.45-22.6 45.5-22.6L45.5-22.6Q43.15-22.6 39.65-21.3L39.65-21.3 38.25-25.3Q40.25-26.2 42.4-26.68 44.55-27.15 46.5-27.15L46.5-27.15Q55.2-27.15 55.2-18.35L55.2-18.35 55.2-6.4ZM45.55-3.7Q47.95-3.7 49.2-7L49.2-7 49.2-12.55 47.75-12.55Q45.2-12.55 44.02-11.4 42.85-10.25 42.85-7.85L42.85-7.85Q42.85-5.8 43.55-4.75 44.25-3.7 45.55-3.7L45.55-3.7ZM87.74-6.4Q87.74-5.1 88.09-4.48 88.44-3.85 89.24-3.45L89.24-3.45 87.99 0.65Q85.94 0.4 84.72-0.45 83.49-1.3 82.89-3.05L82.89-3.05Q80.59 0.75 76.44 0.75L76.44 0.75Q73.14 0.75 71.19-1.48 69.24-3.7 69.24-7.4L69.24-7.4Q69.24-11.7 71.92-13.95 74.59-16.2 79.69-16.2L79.69-16.2 81.74-16.2 81.74-18.05Q81.74-20.55 80.87-21.58 79.99-22.6 78.04-22.6L78.04-22.6Q75.69-22.6 72.19-21.3L72.19-21.3 70.79-25.3Q72.79-26.2 74.94-26.68 77.09-27.15 79.04-27.15L79.04-27.15Q87.74-27.15 87.74-18.35L87.74-18.35 87.74-6.4ZM78.09-3.7Q80.49-3.7 81.74-7L81.74-7 81.74-12.55 80.29-12.55Q77.74-12.55 76.57-11.4 75.39-10.25 75.39-7.85L75.39-7.85Q75.39-5.8 76.09-4.75 76.79-3.7 78.09-3.7L78.09-3.7ZM105.89-27.15Q108.74-27.15 110.39-25.1 112.04-23.05 112.04-19.6L112.04-19.6 112.04 0 105.89 0 105.89-18.9Q105.89-20.8 105.36-21.63 104.84-22.45 103.84-22.45L103.84-22.45Q101.74-22.45 99.69-18.5L99.69-18.5 99.69 0 93.54 0 93.54-26.45 98.89-26.45 99.34-23Q100.69-25.1 102.21-26.13 103.74-27.15 105.89-27.15L105.89-27.15ZM136.24-26.45L129.24 0.1Q127.94 4.9 125.04 7.65 122.14 10.4 117.29 10.85L117.29 10.85 116.59 6.5Q119.74 5.85 121.31 4.42 122.89 3 123.79 0L123.79 0 121.49 0 114.79-26.45 121.04-26.45 125.44-4.1 130.14-26.45 136.24-26.45ZM161.18-26.45L166.88-26.45 162.33 0 154.83 0 151.88-20.85 148.98 0 141.53 0 136.88-26.45 142.83-26.45 145.53-4.6 148.88-26.45 155.13-26.45 158.33-4.6 161.18-26.45ZM182.73-27.15Q185.58-27.15 187.23-25.1 188.88-23.05 188.88-19.6L188.88-19.6 188.88 0 182.73 0 182.73-18.9Q182.73-20.8 182.21-21.63 181.68-22.45 180.68-22.45L180.68-22.45Q178.58-22.45 176.53-18.5L176.53-18.5 176.53 0 170.38 0 170.38-37 176.53-37.65 176.53-23.3Q177.78-25.25 179.26-26.2 180.73-27.15 182.73-27.15L182.73-27.15ZM213.28-13.85Q213.28-13.4 213.13-11.3L213.13-11.3 199.48-11.3Q199.68-7.2 200.9-5.58 202.13-3.95 204.38-3.95L204.38-3.95Q205.93-3.95 207.18-4.48 208.43-5 209.88-6.15L209.88-6.15 212.43-2.65Q208.93 0.75 204.03 0.75L204.03 0.75Q198.83 0.75 196.05-2.85 193.28-6.45 193.28-13L193.28-13Q193.28-19.55 195.93-23.35 198.58-27.15 203.43-27.15L203.43-27.15Q208.08-27.15 210.68-23.78 213.28-20.4 213.28-13.85L213.28-13.85ZM207.28-15.3L207.28-15.65Q207.28-19.4 206.38-21.13 205.48-22.85 203.48-22.85L203.48-22.85Q201.63-22.85 200.65-21.18 199.68-19.5 199.48-15.3L199.48-15.3 207.28-15.3ZM229.23-27.1Q230.38-27.1 231.28-26.75L231.28-26.75 230.28-20.85Q229.28-21.1 228.43-21.1L228.43-21.1Q226.53-21.1 225.43-19.45 224.33-17.8 223.73-14.55L223.73-14.55 223.73 0 217.58 0 217.58-26.45 222.93-26.45 223.38-21.85Q225.23-27.1 229.23-27.1L229.23-27.1ZM252.97-13.85Q252.97-13.4 252.82-11.3L252.82-11.3 239.17-11.3Q239.37-7.2 240.6-5.58 241.82-3.95 244.07-3.95L244.07-3.95Q245.62-3.95 246.87-4.48 248.12-5 249.57-6.15L249.57-6.15 252.12-2.65Q248.62 0.75 243.72 0.75L243.72 0.75Q238.52 0.75 235.75-2.85 232.97-6.45 232.97-13L232.97-13Q232.97-19.55 235.62-23.35 238.27-27.15 243.12-27.15L243.12-27.15Q247.77-27.15 250.37-23.78 252.97-20.4 252.97-13.85L252.97-13.85ZM246.97-15.3L246.97-15.65Q246.97-19.4 246.07-21.13 245.17-22.85 243.17-22.85L243.17-22.85Q241.32-22.85 240.35-21.18 239.37-19.5 239.17-15.3L239.17-15.3 246.97-15.3Z" opacity="1" transform="matrix(1,0,0,1,0,0)" fill="#ff2e63" class="slogan-text-1" data-fill-palette-color="secondary" id="text-1"></path></svg></g></svg></g></svg></g></svg></g><g><svg viewBox="0 0 244.43135999999996 244.43407590399997" height="244.43407590399997" width="244.43135999999996"><g><svg xmlns="http://www.w3.org/2000/svg" xmlns:xlink="http://www.w3.org/1999/xlink" version="1.1" x="0" y="0" viewBox="5.0020000000000024 5 90 90.001" style="enable-background:new 0 0 100 100;" xml:space="preserve" height="244.43407590399997" width="244.43135999999996" class="icon-icon-0" data-fill-palette-color="accent" id="icon-0"><path d="M50.002 5c-24.854 0-45 20.149-45 44.999 0 24.854 20.146 45.002 45 45.002s45-20.148 45-45.002C95.002 25.148 74.856 5 50.002 5zM50.002 80.738c-16.978 0-30.739-13.762-30.739-30.736 0-16.98 13.762-30.742 30.739-30.742s30.739 13.762 30.739 30.742C80.741 66.977 66.979 80.738 50.002 80.738z" fill="#ff2e63" data-fill-palette-color="accent"></path></svg></g></svg></g></svg></g></svg></g><defs></defs></svg><rect width="395.52" height="144.88312618590865" fill="none" stroke="none" visibility="hidden"></rect></g></svg></g></svg>