<svg xmlns="http://www.w3.org/2000/svg" version="1.1" xmlns:xlink="http://www.w3.org/1999/xlink" xmlns:svgjs="http://svgjs.dev/svgjs" width="128" height="128" viewBox="0 0 128 128"><g transform="matrix(0.8046875,0,0,0.8046875,12.505763086624839,12.506335372881338)"><svg viewBox="0 0 59 59" data-background-color="#ffffff" preserveAspectRatio="xMidYMid meet" height="128" width="128" xmlns="http://www.w3.org/2000/svg" xmlns:xlink="http://www.w3.org/1999/xlink"><g id="tight-bounds" transform="matrix(1,0,0,1,-0.003301185542383678,-0.0036289999999894462)"><svg viewBox="0 0 59.00660237108475 59.007257999999986" height="59.007257999999986" width="59.00660237108475"><g><svg viewBox="0 0 59.00660237108475 59.007257999999986" height="59.007257999999986" width="59.00660237108475"><g><svg viewBox="0 0 59.00660237108475 59.007257999999986" height="59.007257999999986" width="59.00660237108475"><g><svg viewBox="0 0 59.00660237108475 59.007257999999986" height="59.007257999999986" width="59.00660237108475"><g id="textblocktransform"><svg viewBox="0 0 59.00660237108475 59.007257999999986" height="59.007257999999986" width="59.00660237108475" id="textblock"><g><svg viewBox="0 0 59.00660237108475 59.007257999999986" height="59.007257999999986" width="59.00660237108475"><g><svg viewBox="0 0 59.00660237108475 59.007257999999986" height="59.007257999999986" width="59.00660237108475"><g><svg xmlns="http://www.w3.org/2000/svg" xmlns:xlink="http://www.w3.org/1999/xlink" version="1.1" x="0" y="0" viewBox="5.0020000000000024 5 90 90.001" style="enable-background:new 0 0 100 100;" xml:space="preserve" height="59.007257999999986" width="59.00660237108475" class="icon-icon-0" data-fill-palette-color="accent" id="icon-0"><path d="M50.002 5c-24.854 0-45 20.149-45 44.999 0 24.854 20.146 45.002 45 45.002s45-20.148 45-45.002C95.002 25.148 74.856 5 50.002 5zM50.002 80.738c-16.978 0-30.739-13.762-30.739-30.736 0-16.98 13.762-30.742 30.739-30.742s30.739 13.762 30.739 30.742C80.741 66.977 66.979 80.738 50.002 80.738z" fill="#ff2e63" data-fill-palette-color="accent"></path></svg></g></svg></g></svg></g></svg></g></svg></g></svg></g></svg></g><defs></defs></svg><rect width="59.00660237108475" height="59.007257999999986" fill="none" stroke="none" visibility="hidden"></rect></g></svg></g></svg>